<?xml version="1.0" encoding="UTF-8"?>
<!-- Generator: Adobe Illustrator 14.0.0, SVG Export Plug-In . SVG Version: 6.00 Build 43363)  -->
<!DOCTYPE svg PUBLIC "-//W3C//DTD SVG 1.1//EN" "http://www.w3.org/Graphics/SVG/1.1/DTD/svg11.dtd">
<svg version="1.1" id="Layer_1" xmlns="http://www.w3.org/2000/svg" xmlns:xlink="http://www.w3.org/1999/xlink" x="0px" y="0px" width="165.667px" height="43.5px" viewBox="0 0 165.667 43.5" enable-background="new 0 0 165.667 43.5" xml:space="preserve">
<path fill="#ED1B2F" d="M0.804,18.568c-1.374-4.898-0.57-9.429-0.57-14.91C5.136,1.222,9.989,1,15.25,1  c4.548,0,10.998,0.586,14.882,2.649c0.399,5.168,0.628,9.715-0.699,15.588c-1.328,5.871-5.348,13.981-14.151,19.974  C5.675,32.912,2.694,25.3,0.804,18.568L0.804,18.568z"/>
<path fill="#FFFFFF" d="M5.395,11.388l-4.733,5.041c1.063,4.934,3.848,15.221,14.584,22.2c10.641-7.322,13.651-17.198,14.295-22.206  l-4.599-5.045l-5.095,5.163l-4.693-5.119l-4.677,5.055L5.395,11.388L5.395,11.388z"/>
<path fill="#FFFFFF" d="M5.364,7.979C6.13,7.977,7.589,8.092,7.935,8.341C8.055,8.15,8.94,6.494,9.024,6.02  c-0.316-0.121-0.61,0.298-0.74,0.33C8.061,6.001,7.838,6.001,7.73,6.017C7.541,6.072,7.641,6.136,7.717,6.163  C8.908,7.167,7.148,8.165,6.84,7.155C5.325,7.279,5.72,6.062,6.108,5.909c0.258-0.076,0.048-0.116-0.032-0.146  C5.981,5.743,5.792,5.731,5.768,5.81C5.792,5.213,5.72,4.749,5.36,4.549c-0.359,0.2-0.424,0.667-0.398,1.266  C4.937,5.735,4.75,5.747,4.654,5.766C4.575,5.794,4.365,5.833,4.621,5.912c0.392,0.153,0.782,1.371-0.732,1.246  C3.583,8.167,1.824,7.169,3.01,6.164c0.079-0.023,0.181-0.088-0.007-0.143C2.89,6.004,2.674,6.004,2.446,6.353  c-0.13-0.031-0.423-0.449-0.742-0.328c0.089,0.472,0.971,2.128,1.089,2.321C3.141,8.097,4.599,7.981,5.364,7.979L5.364,7.979z   M5.364,9.267c0.558-0.001,1.432,0.055,1.958,0.221c0.13-0.274,0.359-0.732,0.483-0.918C7.355,8.3,5.972,8.221,5.366,8.222  c-0.607,0.002-1.991,0.083-2.44,0.354C3.048,8.76,3.279,9.218,3.405,9.491C3.934,9.328,4.806,9.269,5.364,9.267L5.364,9.267z   M6.742,7.408l0.36,0.516L6.293,7.845L6.742,7.408L6.742,7.408z M6.263,8.485c-0.159,0-0.285,0.126-0.285,0.282  c0,0.162,0.126,0.282,0.285,0.282c0.144,0,0.276-0.12,0.276-0.282C6.54,8.614,6.407,8.485,6.263,8.485L6.263,8.485z M7.122,8.663  c-0.147,0-0.271,0.119-0.271,0.274c0,0.15,0.125,0.272,0.271,0.272c0.147,0,0.267-0.123,0.267-0.272  C7.389,8.783,7.27,8.663,7.122,8.663L7.122,8.663z M5.366,9.996c-1.072,0.001-1.87-0.105-1.87-0.236c0-0.132,0.792-0.267,1.87-0.269  c1.078-0.002,1.868,0.132,1.868,0.265C7.233,9.888,6.437,9.993,5.366,9.996L5.366,9.996z M5.363,8.438c0.15,0,0.28,0.124,0.28,0.278  C5.643,8.871,5.514,9,5.363,9C5.215,9,5.084,8.871,5.084,8.716C5.084,8.56,5.215,8.438,5.363,8.438L5.363,8.438z M4.491,8.485  c0.156,0,0.281,0.126,0.281,0.282c0,0.162-0.125,0.282-0.281,0.282c-0.141,0-0.276-0.12-0.276-0.282  C4.214,8.614,4.351,8.485,4.491,8.485L4.491,8.485z M3.632,8.663c0.148,0,0.27,0.119,0.27,0.274c0,0.15-0.122,0.272-0.27,0.272  S3.364,9.086,3.364,8.937C3.363,8.783,3.483,8.663,3.632,8.663L3.632,8.663z M5.356,6.839L5.94,7.831H4.801L5.356,6.839L5.356,6.839  z M4.011,7.408l-0.36,0.515l0.808-0.077L4.011,7.408L4.011,7.408z"/>
<path fill="#FFFFFF" d="M24.935,7.979c0.766-0.002,2.224,0.114,2.571,0.363c0.121-0.192,1.004-1.849,1.089-2.322  c-0.318-0.122-0.612,0.298-0.74,0.33c-0.227-0.351-0.447-0.351-0.556-0.333c-0.188,0.055-0.089,0.119-0.012,0.145  c1.19,1.003-0.57,2.001-0.876,0.993c-1.516,0.123-1.122-1.094-0.731-1.246c0.258-0.077,0.047-0.117-0.032-0.145  c-0.096-0.021-0.286-0.032-0.31,0.047c0.023-0.598-0.048-1.062-0.406-1.262c-0.357,0.2-0.422,0.667-0.397,1.267  c-0.024-0.082-0.212-0.069-0.308-0.048c-0.08,0.028-0.289,0.067-0.034,0.146c0.393,0.153,0.784,1.371-0.73,1.246  c-0.307,1.009-2.066,0.013-0.878-0.994c0.079-0.023,0.182-0.088-0.007-0.143c-0.114-0.017-0.329-0.017-0.556,0.332  c-0.132-0.032-0.424-0.449-0.745-0.329c0.089,0.472,0.973,2.129,1.091,2.321C22.712,8.097,24.167,7.981,24.935,7.979L24.935,7.979z   M24.935,9.267c0.557-0.001,1.43,0.055,1.958,0.221c0.128-0.274,0.356-0.732,0.482-0.918c-0.45-0.269-1.835-0.348-2.44-0.347  c-0.605,0.002-1.991,0.083-2.44,0.353c0.124,0.185,0.355,0.643,0.481,0.917C23.503,9.328,24.375,9.269,24.935,9.267L24.935,9.267z   M26.314,7.408l0.359,0.516l-0.808-0.078L26.314,7.408L26.314,7.408z M25.833,8.485c-0.157,0-0.285,0.126-0.285,0.282  c0,0.162,0.128,0.282,0.285,0.282c0.144,0,0.275-0.12,0.275-0.282C26.109,8.614,25.978,8.485,25.833,8.485L25.833,8.485z   M26.692,8.663c-0.147,0-0.271,0.119-0.271,0.274c0,0.15,0.124,0.272,0.271,0.272s0.267-0.123,0.267-0.272  C26.959,8.783,26.84,8.663,26.692,8.663L26.692,8.663z M24.936,9.996c-1.071,0.001-1.87-0.103-1.87-0.236  c0-0.132,0.792-0.267,1.87-0.269s1.87,0.133,1.87,0.266C26.806,9.89,26.006,9.993,24.936,9.996L24.936,9.996z M24.933,8.438  c0.151,0,0.28,0.124,0.28,0.278c0,0.155-0.129,0.284-0.28,0.284c-0.147,0-0.28-0.128-0.28-0.284  C24.653,8.56,24.785,8.438,24.933,8.438L24.933,8.438z M24.061,8.485c0.157,0,0.282,0.126,0.282,0.282  c0,0.162-0.125,0.282-0.282,0.282c-0.141,0-0.278-0.12-0.278-0.282C23.783,8.614,23.92,8.485,24.061,8.485L24.061,8.485z   M23.202,8.663c0.148,0,0.27,0.119,0.27,0.274c0,0.15-0.122,0.272-0.27,0.272s-0.269-0.123-0.269-0.272  C22.934,8.783,23.054,8.663,23.202,8.663L23.202,8.663z M24.927,6.839l0.584,0.991h-1.14L24.927,6.839L24.927,6.839z M23.582,7.408  l-0.363,0.516l0.811-0.078L23.582,7.408L23.582,7.408z"/>
<path fill="#ED1B2F" d="M4.772,20.909c0.073-0.158,0.243-0.638,0.313-0.798c-0.071-0.168-0.241-0.325-0.384-0.325  c0.071-0.157,0.345-0.36,0.293-0.502c-0.052-0.141-0.177-0.129-0.459-0.273c0.102-0.202,0.306-0.305,0.456-0.334  c0.148-0.028,0.151-0.249,0.414-0.389c0.262-0.14,0.499-0.177,0.881-0.157c0.379,0.021,1.637,0.366,1.311,1.813  c0.723,1.448,3.231-0.481,4.125-0.481c-0.168,0.325-0.41,0.65-0.567,0.964c0.241,0.168,0.567,0,0.808,0  c-0.241,0.797-0.724,1.121-1.133,1.447c0.41,1.288,1.899,0.791,3.235,0.642c-0.164,0.44-0.724,0.481-0.966,0.809  c0.456,0.478,0.966,1.123,1.292,1.771c-0.599-0.397-1.857-0.808-2.267-0.966c-0.809-0.325-2.427-0.325-3.235,0  c0.169,0.313,0.483,0.481,0.736,0.642c-0.409,0.808-1.218,0.326-1.7,0.166c-0.41,0.315-1.167,0.338-1.376,0.158  c0,0,0-0.203,0.242-0.379c0.165-0.229-0.483-0.271-0.652-0.587c0.003-0.296,0.312-0.002,0.494-0.325  C6.22,22.997,4.531,22.837,4.772,20.909L4.772,20.909z M5.918,18.611c0.088,0,0.16,0.072,0.16,0.162c0,0.086-0.071,0.16-0.16,0.16  c-0.09,0-0.16-0.074-0.16-0.16C5.759,18.684,5.83,18.611,5.918,18.611L5.918,18.611z"/>
<path fill="#ED1B2F" d="M16.193,21.144c0.071-0.158,0.242-0.641,0.312-0.798c-0.07-0.169-0.241-0.325-0.386-0.325  c0.074-0.155,0.347-0.361,0.295-0.502c-0.054-0.142-0.177-0.129-0.459-0.273c0.099-0.201,0.305-0.306,0.454-0.334  c0.148-0.027,0.151-0.248,0.414-0.389c0.262-0.14,0.499-0.178,0.881-0.156c0.38,0.02,1.637,0.366,1.311,1.813  c0.725,1.446,3.234-0.484,4.126-0.484c-0.17,0.326-0.412,0.653-0.568,0.965c0.242,0.168,0.568,0,0.808,0  c-0.241,0.797-0.724,1.121-1.133,1.448c0.409,1.292,1.898,0.793,3.231,0.639c-0.164,0.441-0.723,0.48-0.964,0.811  c0.456,0.477,0.964,1.121,1.291,1.771c-0.6-0.396-1.857-0.81-2.268-0.963c-0.808-0.328-2.425-0.328-3.233,0  c0.169,0.313,0.483,0.479,0.736,0.642c-0.411,0.807-1.219,0.325-1.701,0.168c-0.412,0.312-1.168,0.336-1.377,0.155  c0,0,0-0.201,0.243-0.377c0.165-0.231-0.483-0.274-0.652-0.588c0.003-0.298,0.312-0.005,0.495-0.328  C17.641,23.229,15.951,23.07,16.193,21.144L16.193,21.144z M17.317,18.845c0.089,0,0.164,0.073,0.164,0.164  c0,0.09-0.074,0.163-0.164,0.163c-0.09,0-0.164-0.072-0.164-0.163C17.153,18.917,17.227,18.845,17.317,18.845L17.317,18.845z"/>
<path fill="#ED1B2F" d="M10.722,29.229c0.072-0.158,0.241-0.641,0.314-0.797c-0.074-0.168-0.242-0.326-0.387-0.326  c0.073-0.157,0.347-0.362,0.293-0.506c-0.052-0.139-0.177-0.127-0.458-0.271c0.1-0.2,0.304-0.305,0.453-0.333  c0.151-0.031,0.154-0.251,0.414-0.39c0.262-0.143,0.5-0.181,0.881-0.157c0.381,0.021,1.636,0.364,1.312,1.812  c0.723,1.445,3.234-0.483,4.126-0.483c-0.168,0.328-0.41,0.65-0.566,0.966c0.24,0.169,0.566,0,0.808,0  c-0.241,0.797-0.725,1.123-1.133,1.448c0.409,1.289,1.896,0.791,3.232,0.638c-0.165,0.442-0.724,0.481-0.964,0.81  c0.454,0.479,0.964,1.121,1.29,1.772c-0.598-0.397-1.856-0.81-2.267-0.964c-0.808-0.327-2.424-0.327-3.233,0  c0.168,0.312,0.481,0.48,0.735,0.64c-0.41,0.808-1.219,0.325-1.703,0.167c-0.41,0.312-1.165,0.338-1.373,0.157  c0,0,0-0.201,0.24-0.379c0.166-0.229-0.482-0.272-0.65-0.585c0.003-0.297,0.313-0.004,0.494-0.327  C12.171,31.312,10.483,31.158,10.722,29.229L10.722,29.229z M11.859,26.932c0.083,0,0.149,0.066,0.149,0.149  s-0.067,0.149-0.149,0.149c-0.083,0-0.15-0.066-0.15-0.149S11.776,26.932,11.859,26.932L11.859,26.932z"/>
<path fill="#FFFFFF" d="M15.241,9.441c-0.229,0.204-0.318,0.28-0.267,0.486h0.577C15.579,9.703,15.494,9.613,15.241,9.441  L15.241,9.441z M18.558,3.098c0,0-0.705,0.298-1.351,0.017c-0.704-0.307-1.339-0.409-1.845-0.185v6.185  c0.438-0.21,0.919-0.129,1.603,0.036c0.684,0.165,1.086,0.157,1.595,0.072L18.558,3.098L18.558,3.098z M18.767,3.104L19.3,3.611  v6.132l-0.534-0.502L18.767,3.104L18.767,3.104z M19.177,9.911l-0.562-0.493c-0.419,0.167-1.326-0.021-1.755-0.102  c-0.72-0.137-1.014-0.225-1.489-0.012c0.258,0.148,0.419,0.357,0.407,0.611L19.177,9.911L19.177,9.911z M11.325,9.915l0.562-0.495  c0.419,0.169,1.323-0.019,1.755-0.1c0.72-0.138,1.012-0.225,1.487-0.012c-0.258,0.149-0.419,0.359-0.406,0.611L11.325,9.915  L11.325,9.915z M11.698,3.153l-0.535,0.505v6.133l0.535-0.503V3.153L11.698,3.153z M11.908,3.098c0,0,0.711,0.298,1.36,0.017  c0.704-0.307,1.338-0.409,1.844-0.185v6.185c-0.438-0.21-0.921-0.129-1.604,0.036c-0.683,0.165-1.085,0.157-1.593,0.072  L11.908,3.098L11.908,3.098z"/>
<path fill="#ED1B2F" d="M15.668,4.241c0.008-0.253,0.148-0.399,0.377-0.399c0.202,0,0.33,0.113,0.337,0.294h-0.164  c0-0.061-0.045-0.15-0.166-0.15c-0.125,0-0.222,0.115-0.222,0.29c0,0.125,0.071,0.262,0.201,0.262c0.088,0,0.176-0.032,0.185-0.158  h0.164c0.022,0.141-0.135,0.311-0.337,0.311C15.831,4.69,15.658,4.539,15.668,4.241L15.668,4.241z M16.458,4.377  c-0.016-0.225,0.124-0.462,0.396-0.45c0.209,0,0.402,0.146,0.382,0.434c-0.01,0.185-0.105,0.399-0.391,0.406  C16.555,4.76,16.467,4.526,16.458,4.377L16.458,4.377z M16.624,4.317c0,0.149,0.051,0.298,0.229,0.298  c0.14,0.001,0.215-0.112,0.215-0.26c0-0.089-0.016-0.27-0.217-0.27C16.764,4.084,16.644,4.116,16.624,4.317L16.624,4.317z   M17.408,4.837v-0.81h0.165l0.334,0.547V4.027h0.165v0.809h-0.165l-0.325-0.547v0.547L17.408,4.837L17.408,4.837z M16.361,6.369  v-0.81h0.572v0.146h-0.401V5.89h0.357v0.141h-0.357v0.338H16.361L16.361,6.369z M17.126,6.456V5.648h0.173v0.807L17.126,6.456  L17.126,6.456z M16.515,8.058H16.12v-0.81h0.382C16.934,7.301,16.845,8.017,16.515,8.058L16.515,8.058z M16.285,7.919h0.164  c0.223,0,0.237-0.525-0.006-0.525h-0.158V7.919L16.285,7.919z M16.954,7.806c-0.016-0.224,0.125-0.46,0.395-0.45  c0.209,0,0.401,0.145,0.381,0.437c-0.007,0.184-0.104,0.396-0.39,0.405C17.049,8.189,16.96,7.957,16.954,7.806L16.954,7.806z   M17.119,7.749c0,0.148,0.051,0.295,0.228,0.295c0.141,0,0.218-0.112,0.218-0.261c0-0.088-0.017-0.269-0.218-0.269  C17.26,7.514,17.138,7.545,17.119,7.749L17.119,7.749z M12.825,4.748v-0.81h0.172v0.809L12.825,4.748L12.825,4.748z M13.181,4.651  V3.843h0.164L13.68,4.39V3.843h0.164v0.808H13.68l-0.326-0.547v0.547H13.181L13.181,4.651z M12.581,6.456h-0.395V5.648h0.383  C13,5.701,12.912,6.416,12.581,6.456L12.581,6.456z M12.354,6.319h0.164c0.221,0,0.237-0.525-0.009-0.525h-0.155V6.319L12.354,6.319  z M12.969,5.93c-0.016-0.224,0.125-0.463,0.394-0.45c0.21,0,0.402,0.145,0.382,0.435c-0.008,0.183-0.104,0.397-0.391,0.405  C13.065,6.312,12.975,6.078,12.969,5.93L12.969,5.93z M13.133,5.87c0,0.147,0.052,0.296,0.228,0.296  c0.143,0,0.217-0.113,0.217-0.261c0-0.088-0.018-0.27-0.217-0.27C13.274,5.637,13.154,5.668,13.133,5.87L13.133,5.87z M13.902,6.268  V5.459h0.245l0.148,0.612l0.15-0.612h0.24v0.808H14.52V5.625l-0.14,0.643h-0.171l-0.141-0.643v0.643H13.902L13.902,6.268z   M12.554,8.214V7.406h0.173v0.808H12.554L12.554,8.214z M12.916,8.113V7.306h0.165l0.333,0.547V7.306h0.165v0.808h-0.165  l-0.326-0.547v0.547h-0.172V8.113z M13.752,7.663c-0.017-0.225,0.124-0.462,0.395-0.45c0.209,0,0.401,0.145,0.381,0.434  c-0.008,0.186-0.104,0.399-0.39,0.406C13.849,8.044,13.76,7.812,13.752,7.663L13.752,7.663z M13.916,7.603  c0,0.148,0.052,0.296,0.231,0.296c0.141,0,0.216-0.114,0.216-0.262c0-0.087-0.016-0.269-0.216-0.269  C14.057,7.371,13.938,7.402,13.916,7.603L13.916,7.603z"/>
<path fill="#ED1B2F" d="M132.625,5.363c1.271,0,2.336,1.046,2.336,2.339c0,1.292-1.063,2.357-2.336,2.357  c-1.271,0-2.32-1.066-2.32-2.357C130.304,6.409,131.353,5.363,132.625,5.363L132.625,5.363z M154.798,30.186  c-0.104,1.025-0.572,1.703-2.504,2.234c-1.521,0.494-1.336,1.292,0.207,1.354c4.144-0.592,5.433-0.488,9.148-0.08  c1.457-0.021,1.212-0.963,0.307-1.395c-2.176-0.841-2.523-0.861-2.955-3.017l-0.162-21.745c0-1.251,0.472-2.708-0.863-2.38  c-2.48,0.985-2.689,1.067-4.943,1.848c-1.189,0.512-0.738,1.086,0.121,1.375c1.213,0.491,1.312,1.229,1.379,2.112L154.798,30.186  L154.798,30.186z M142.039,30.062c-0.104,1.024-0.576,1.703-2.502,2.236c-1.519,0.492-1.338,1.292,0.202,1.354  c4.144-0.594,5.438-0.491,9.149-0.082c1.457-0.021,1.211-0.961,0.308-1.395c-2.176-0.843-2.521-0.863-2.952-3.015l-0.166-21.745  c0-1.253,0.473-2.709-0.865-2.38c-2.479,0.985-2.686,1.068-4.942,1.847c-1.187,0.513-0.735,1.088,0.126,1.375  c1.211,0.492,1.312,1.231,1.374,2.113L142.039,30.062L142.039,30.062z M130.406,21.507c-0.103-1.106-0.244-1.97-1.516-2.338  c-0.903-0.083-1.335-0.904-0.042-1.395c2.585-0.841,2.956-0.985,4.942-2.585c0.617-0.327,1.332-0.061,0.983,1.046  c-0.142,0.841-0.122,1.23-0.185,2.135l0.021,11.321c0.104,1.847,1.538,2.154,2.463,2.521c0.924,0.371,1.006,1.456-0.08,1.477  c-4.021-0.554-4.904-0.612-8.779,0.164c-1.291,0.021-1.577-0.963,0.021-1.539c1.602-0.572,2.133-0.838,2.217-2.215L130.406,21.507  L130.406,21.507z M94.817,19.417c0.901-9.664,7.099-13.704,15.817-14.423c9.188,0.062,10.502,0.676,10.38,5.806  c0.062,1.845-1.169,2.276-2.033,0.184c-0.981-1.887-1.804-2.974-4.144-3.937c-7.918-1.785-13.784,3.302-14.137,11.958  c-0.554,12.207,13.108,15.774,15.938,11.22c0.598-1.188,0.598-4.348,0.515-6.953c-0.492-1.724-2.133-1.56-3.734-1.621  c-1.723,0.123-2.338-1.825-0.021-1.805c2.238,0,6.544,0.202,12.083-0.309c1.641,0.062,1.764,1.558-0.244,1.785  c-0.863,0.164-2.689,0.144-2.936,1.581c-0.205,7.424,1.521,8.143-4.083,10.174c-7.14,1.684-14.831,0.902-19.179-3.303  C97.093,28.052,94.654,24.091,94.817,19.417L94.817,19.417z M76.375,24.38c0.8-8.042,7.468-9.931,10.892-9.95  c4.062,0.123,5.354,1.457,5.398,2.811c0.039,1.355-0.928,2.072-1.973,1.783c-2.234-0.574-1.806-2.932-4.779-3.118  c-3.367,0.493-5.396,4.268-4.822,8.781c0.574,4.511,4.943,7.875,10.277,5.129c1.297-0.289,1.396,0.777,0.348,1.517  C81.914,37.364,75.964,28.768,76.375,24.38L76.375,24.38z M46.097,10.881c-0.205-2.769-1.067-1.928-3.18-2.769  c-1.704-0.329-1.847-1.559-0.164-1.621c3.034,0.225,4.553,0.267,7.076-0.123c1.149,0.185,1.641,0.656,2.072,1.763  c2.113,4.471,5.19,11.18,7.303,15.653c0.369,0.8,0.575,0.965,1.046-0.063l6.239-15.938c0.697-1.354,1.454-1.681,3.629-1.477  c3.754,0.062,4.677-0.042,6.522-0.246c1.6,0.062,1.5,1.292-0.081,1.723c-2.421,0.021-3.693,0.842-4.063,2.647l0.349,18.296  c0.392,2.729,1.806,2.812,4.35,3.467c1.149,0.514,0.902,1.314-0.082,1.578c-5.313-0.613-7.159-0.573-12.431-0.062  c-1.519,0.146-1.622-1.17,0.02-1.519c1.949-0.431,2.441-0.775,2.873-1.805l-0.39-17.64c-0.063-0.698-0.492-0.698-0.759,0.122  L58.98,31.477c-0.699,1.576-1.006,1.576-1.766,0.349l-8.799-19.058c-0.267-0.656-0.595-0.453-0.636-0.042l0.083,16.821  c0.246,1.949,1.6,2.073,4.348,2.933c0.78,0.248,0.822,0.906,0.186,1.312c-5.376-0.451-6.237-0.451-11.222,0.188  c-0.779,0-1.148-1.149,0.063-1.312c2.646-0.759,3.364-0.801,3.753-2.318L46.097,10.881L46.097,10.881z"/>
</svg>